<?xml version="1.0" encoding="iso-8859-1"?>
<!-- Uploaded to: SVG Repo, www.svgrepo.com, Generator: SVG Repo Mixer Tools -->
<svg height="50px" width="50px" version="1.1" id="Layer_1" xmlns="http://www.w3.org/2000/svg" xmlns:xlink="http://www.w3.org/1999/xlink" 
	 viewBox="0 0 512.002 512.002" xml:space="preserve">
<path style="fill:#FFB547;" d="M235.301,464.44l-36.186,33.329c-7.891,7.268-20.682,3.513-23.39-6.868L163.302,443.3
	c-4.016-15.386-19.162-25.121-34.826-22.381l-48.461,8.476c-10.568,1.848-19.298-8.227-15.964-18.423l15.285-46.762
	c4.941-15.115-2.538-31.493-17.198-37.656l-45.35-19.07c-9.89-4.158-11.786-17.353-3.47-24.13l38.14-31.074
	c12.328-10.045,14.891-27.866,5.892-40.977l-27.84-40.561c-6.071-8.845-0.533-20.97,10.126-22.174l48.886-5.521
	c15.802-1.784,27.592-15.392,27.11-31.286l-1.492-49.174c-0.325-10.723,10.889-17.93,20.508-13.18l44.11,21.784
	c14.258,7.041,31.533,1.969,39.721-11.663l25.33-42.174c5.524-9.197,18.854-9.197,24.378,0l25.33,42.174
	c8.188,13.632,25.463,18.704,39.721,11.663l44.11-21.784c9.619-4.75,20.833,2.457,20.508,13.18l-1.492,49.174
	c-0.482,15.895,11.308,29.502,27.11,31.286l48.886,5.521c10.661,1.204,16.198,13.329,10.127,22.174l-27.84,40.561
	c-8.999,13.111-6.437,30.932,5.892,40.977l38.14,31.074c8.317,6.776,6.42,19.971-3.469,24.13l-45.35,19.07
	c-14.658,6.164-22.138,22.541-17.198,37.656l15.285,46.762c3.333,10.198-5.397,20.271-15.964,18.423l-48.461-8.476
	c-15.664-2.74-30.81,6.995-34.826,22.381l-12.423,47.602c-2.709,10.381-15.499,14.136-23.39,6.868l-36.186-33.329
	C265.002,453.666,246.997,453.666,235.301,464.44z"/>
<path style="opacity:0.1;enable-background:new    ;" d="M440.52,416.089l-48.461-8.476c-15.127-2.645-29.768,6.343-34.371,20.819
	c6.773-6.162,16.205-9.199,25.836-7.515l48.461,8.476c9.118,1.595,16.861-5.687,16.673-14.265
	C446.231,416.194,443.446,416.6,440.52,416.089z M135.363,96.423l-1.437-47.348c-9.448-4.055-20.101,3.052-19.783,13.508
	l1.492,49.174c0.167,5.493-1.134,10.713-3.559,15.267C125.914,123.656,135.804,111.006,135.363,96.423z M195.453,475.568
	l-12.423-47.602c-4.016-15.386-19.162-25.121-34.826-22.381l-48.46,8.476c-10.568,1.848-19.298-8.227-15.965-18.423l15.285-46.762
	c4.941-15.115-2.538-31.493-17.198-37.656l-45.35-19.071c-9.89-4.158-11.786-17.353-3.47-24.129l38.14-31.074
	c12.328-10.045,14.89-27.866,5.892-40.977l-27.84-40.561c-1.648-2.401-2.434-5.042-2.502-7.643l-7.1,0.802
	c-10.661,1.204-16.198,13.329-10.126,22.174l27.84,40.561c8.999,13.111,6.437,30.932-5.892,40.977l-38.14,31.074
	c-8.317,6.776-6.42,19.971,3.47,24.13l45.35,19.071c14.658,6.164,22.138,22.541,17.198,37.656l-15.285,46.762
	c-3.333,10.198,5.397,20.271,15.964,18.423l48.461-8.476c15.664-2.74,30.81,6.995,34.826,22.381l12.423,47.602
	c2.709,10.381,15.499,14.136,23.39,6.868l12.844-11.829C204.983,487.297,197.458,483.25,195.453,475.568z M296.427,449.107
	c-11.697-10.773-29.701-10.773-41.398,0l-10.148,9.347c10.585-4.131,22.995-2.139,31.817,5.988l36.186,33.329
	c7.891,7.268,20.682,3.513,23.39-6.868l1.419-5.44c-1.806-0.611-3.538-1.606-5.081-3.027L296.427,449.107z M262.454,12.005
	c-6.297-3.189-14.579-1.419-18.643,5.346l-25.33,42.174c-4.506,7.502-11.766,12.404-19.759,14.129
	c12.519,2.72,25.793-2.687,32.666-14.129l25.33-42.174C258.178,14.92,260.191,13.151,262.454,12.005z"/>
<circle style="fill:#FEE050;" cx="256" cy="254.212" r="140.918"/>
<g style="opacity:0.05;">
	<path d="M276.461,374.666c-77.827,0-140.918-63.091-140.918-140.918c0-33.702,11.837-64.635,31.572-88.883
		c-31.748,25.839-52.034,65.221-52.034,109.345c0,77.826,63.091,140.918,140.918,140.918c44.124,0,83.507-20.285,109.345-52.034
		C341.096,362.828,310.163,374.666,276.461,374.666z"/>
</g>
<path style="fill:#1E252B;" d="M256,105.215c-82.157,0-148.995,66.838-148.995,148.995c0,82.156,66.838,148.995,148.995,148.995
	s148.995-66.839,148.995-148.995C404.995,172.053,338.156,105.215,256,105.215z M256,387.05
	c-73.249,0-132.841-59.593-132.841-132.841c0-73.249,59.592-132.841,132.841-132.841S388.84,180.96,388.84,254.209
	S329.249,387.05,256,387.05z M503.781,277.09l-38.14-31.075c-8.999-7.333-10.903-20.573-4.334-30.144l27.84-40.561
	c4.47-6.513,5.181-14.693,1.899-21.879c-3.281-7.186-9.928-12.006-17.778-12.893l-48.886-5.521
	c-11.535-1.303-20.296-11.412-19.943-23.015l1.493-49.174c0.239-7.897-3.586-15.161-10.232-19.431
	c-6.646-4.272-14.843-4.733-21.927-1.234l-44.109,21.784c-10.409,5.14-23.244,1.372-29.221-8.58l-25.33-42.174
	C271.044,6.42,263.9,2.377,256,2.377s-15.045,4.043-19.112,10.816l-25.331,42.174c-5.976,9.952-18.812,13.72-29.22,8.58
	l-44.11-21.784c-7.083-3.499-15.28-3.037-21.927,1.234c-6.646,4.271-10.471,11.535-10.232,19.432l1.493,49.173
	c0.352,11.603-8.408,21.712-19.943,23.015l-48.885,5.521c-7.851,0.886-14.497,5.706-17.778,12.892
	c-3.283,7.186-2.573,15.366,1.899,21.879l27.84,40.561c6.569,9.571,4.665,22.812-4.334,30.144L8.219,277.09
	c-6.125,4.989-9.11,12.638-7.986,20.458c1.124,7.82,6.144,14.316,13.426,17.379l45.35,19.07c10.7,4.499,16.258,16.668,12.651,27.702
	L56.375,408.46c-2.454,7.509-0.831,15.558,4.342,21.528c5.174,5.971,12.906,8.726,20.69,7.362l48.461-8.476
	c11.438-1.996,22.688,5.233,25.619,16.465l12.423,47.602c1.995,7.644,7.711,13.537,15.29,15.763
	c2.105,0.618,4.241,0.921,6.355,0.921c5.497,0,10.834-2.047,15.032-5.913l36.186-33.33c8.539-7.865,21.916-7.865,30.454,0
	l36.186,33.33c5.811,5.352,13.805,7.218,21.386,4.993c7.581-2.226,13.297-8.118,15.292-15.763l12.423-47.602
	c2.931-11.233,14.184-18.464,25.619-16.464l48.461,8.476c7.78,1.362,15.517-1.389,20.69-7.361
	c5.174-5.971,6.798-14.019,4.343-21.528l-15.286-46.761c-3.607-11.034,1.95-23.202,12.651-27.702l45.35-19.07
	c7.282-3.063,12.302-9.559,13.426-17.379C512.891,289.728,509.906,282.079,503.781,277.09z M495.778,295.248
	c-0.149,1.034-0.807,3.571-3.698,4.787l-45.35,19.071c-18.391,7.734-27.942,28.648-21.743,47.612l15.286,46.761
	c0.975,2.982-0.513,5.14-1.196,5.93c-0.685,0.789-2.607,2.565-5.699,2.028l-48.461-8.476c-19.657-3.442-38.995,8.994-44.033,28.299
	l-12.423,47.602c-0.793,3.035-3.209,4.047-4.213,4.342c-1.003,0.294-3.583,0.75-5.891-1.375l-36.186-33.33
	c-7.337-6.758-16.755-10.137-26.171-10.137c-9.417,0-18.834,3.379-26.171,10.137l-36.186,33.33
	c-2.307,2.125-4.889,1.669-5.891,1.375c-1.003-0.294-3.42-1.306-4.212-4.342l-12.423-47.602
	c-5.037-19.304-24.377-31.734-44.033-28.298l-48.46,8.476c-3.091,0.542-5.015-1.238-5.699-2.028s-2.171-2.949-1.195-5.93
	l15.285-46.761c6.199-18.965-3.351-39.878-21.743-47.612l-45.35-19.07c-2.892-1.216-3.55-3.753-3.698-4.787
	c-0.149-1.034-0.232-3.654,2.2-5.635l38.14-31.074c15.467-12.602,18.739-35.359,7.449-51.808l-27.84-40.561
	c-1.776-2.586-0.957-5.077-0.523-6.027c0.434-0.951,1.78-3.2,4.897-3.551l48.886-5.521c19.825-2.239,34.881-19.615,34.277-39.557
	l-1.493-49.173c-0.095-3.136,1.94-4.788,2.818-5.353c0.879-0.563,3.229-1.728,6.04-0.339l44.11,21.784
	c17.887,8.834,39.949,2.356,50.222-14.747l25.33-42.174c1.614-2.689,4.219-2.979,5.264-2.979s3.65,0.291,5.264,2.98l25.33,42.174
	c10.272,17.103,32.332,23.581,50.222,14.747l44.109-21.784c2.812-1.391,5.161-0.225,6.039,0.339
	c0.879,0.565,2.914,2.217,2.818,5.352l-1.493,49.174c-0.604,19.943,14.452,37.318,34.277,39.557l48.886,5.521
	c3.117,0.352,4.463,2.601,4.897,3.551c0.434,0.951,1.252,3.441-0.523,6.027l-27.84,40.561c-11.291,16.449-8.019,39.207,7.449,51.81
	l38.14,31.074C496.009,291.594,495.925,294.214,495.778,295.248z"/>
</svg>